<svg width="40" height="40" viewBox="0 0 40 40" fill="none" xmlns="http://www.w3.org/2000/svg">
    <g clip-path="url(#clip0_184_843)">
        <g filter="url(#filter0_b_184_843)">
            <path d="M10.4 19.6C10.4 14.9566 10.3888 10.3021 10.4 5.65871C10.4 3.7474 11.3669 2.35327 13.0646 1.80237C13.4693 1.66745 13.9078 1.61124 14.3351 1.61124C18.2589 1.6 22.1827 1.6 26.0952 1.61124C28.3775 1.62248 30.0415 3.2752 30.0415 5.54628C30.0527 14.9229 30.0527 24.2883 30.0415 33.665C30.0415 35.936 28.3775 37.6 26.1065 37.6C22.2276 37.6112 18.3488 37.6112 14.47 37.6C12.0415 37.6 10.4225 36.0035 10.4113 33.5525C10.3888 28.8979 10.4 24.2546 10.4 19.6ZM20.2264 4.8717C19.4619 4.8717 18.6973 4.8717 17.9216 4.8717C17.3144 4.88294 16.9772 5.16402 16.9659 5.65871C16.9547 6.16464 17.2695 6.51317 17.8541 6.51317C19.4281 6.53566 20.9909 6.53566 22.5649 6.51317C23.1271 6.50193 23.5093 6.11967 23.4868 5.65871C23.4644 5.1865 23.0933 4.8717 22.5199 4.8717C21.7554 4.8717 20.9909 4.8717 20.2264 4.8717ZM20.2264 31.0791C19.3045 31.0791 18.5737 31.8099 18.5849 32.7093C18.5961 33.6087 19.3494 34.3395 20.2489 34.3283C21.1258 34.317 21.8341 33.5975 21.8341 32.7093C21.8454 31.7761 21.1483 31.0791 20.2264 31.0791Z"
                  fill="#E60000"/>
        </g>
    </g>
    <defs>
        <filter id="filter0_b_184_843" x="-1.60498" y="-10.3972" width="43.6549" height="60.0056"
                filterUnits="userSpaceOnUse" color-interpolation-filters="sRGB">
            <feFlood flood-opacity="0" result="BackgroundImageFix"/>
            <feGaussianBlur in="BackgroundImageFix" stdDeviation="6"/>
            <feComposite in2="SourceAlpha" operator="in" result="effect1_backgroundBlur_184_843"/>
            <feBlend mode="normal" in="SourceGraphic" in2="effect1_backgroundBlur_184_843" result="shape"/>
        </filter>
        <clipPath id="clip0_184_843">
            <rect width="19.6415" height="36" fill="white" transform="translate(10.4 1.6)"/>
        </clipPath>
    </defs>
</svg>

